Crispy Narrow Medium-MinGrade.ufo
<glyph name="four" format="2">
  <advance width="448"/>
  <unicode hex="0034"/>
  <outline>
    <contour>
      <point x="249" y="0" type="line"/>
      <point x="389" y="0" type="line"/>
      <point x="389" y="742" type="line"/>
      <point x="428" y="742" type="line"/>
      <point x="428" y="850" type="line"/>
      <point x="389" y="850" type="line"/>
      <point x="389" y="1600" type="line"/>
      <point x="249" y="1600" type="line"/>
      <point x="249" y="850" type="line"/>
      <point x="158" y="850" type="line"/>
      <point x="158" y="943" type="line"/>
      <point x="195" y="1600" type="line"/>
      <point x="55" y="1600" type="line"/>
      <point x="18" y="942" type="line"/>
      <point x="18" y="742" type="line"/>
      <point x="249" y="742" type="line"/>
    </contour>
  </outline>
</glyph>
<glyph name="seven" format="2">
  <advance width="449"/>
  <unicode hex="0037"/>
  <outline>
    <contour>
      <point x="160" y="0" type="line"/>
      <point x="299" y="0" type="line" identifier="PiPrv7Kcoy"/>
      <point x="420" y="1363" type="line" identifier="PkvwNC9Tx1"/>
      <point x="420" y="1600" type="line" identifier="tgqM27bPOm"/>
      <point x="35" y="1600" type="line" identifier="36ml4xRICt"/>
      <point x="35" y="1122" type="line" identifier="aaDZsh5Mah"/>
      <point x="174" y="1122" type="line"/>
      <point x="174" y="1492" type="line"/>
      <point x="280" y="1492" type="line"/>
      <point x="280" y="1383" type="line"/>
    </contour>
  </outline>
</glyph>
<glyph name="nine" format="2">
  <advance width="460"/>
  <unicode hex="0039"/>
  <outline>
    <contour>
      <point x="416" y="1600" type="line" identifier="uiw6aBUf4P"/>
      <point x="34" y="1600" type="line" identifier="jtYkxiUX6G"/>
      <point x="34" y="758" type="line" identifier="2G5L37c87I"/>
      <point x="276" y="758" type="line"/>
      <point x="276" y="108" type="line"/>
      <point x="174" y="108" type="line"/>
      <point x="174" y="477" type="line"/>
      <point x="34" y="477" type="line" identifier="Wuidbv6mUe"/>
      <point x="34" y="0" type="line" identifier="oGvEEuxnYv"/>
      <point x="416" y="0" type="line" identifier="xR3pEHbMJx"/>
    </contour>
    <contour>
      <point x="174" y="865" type="line"/>
      <point x="174" y="1492" type="line"/>
      <point x="276" y="1492" type="line"/>
      <point x="276" y="865" type="line"/>
    </contour>
  </outline>
</glyph>
<glyph name="B" format="2">
  <advance width="464"/>
  <unicode hex="0042"/>
  <outline>
    <contour>
      <point x="47" y="0" type="line"/>
      <point x="363" y="0" type="line"/>
      <point x="437" y="240" type="line"/>
      <point x="437" y="849" type="line"/>
      <point x="347" y="849" type="line"/>
      <point x="413" y="1031" type="line"/>
      <point x="413" y="1600" type="line"/>
      <point x="47" y="1600" type="line"/>
    </contour>
    <contour>
      <point x="187" y="108" type="line"/>
      <point x="187" y="746" type="line"/>
      <point x="297" y="746" type="line"/>
      <point x="297" y="257" type="line"/>
      <point x="258" y="108" type="line"/>
    </contour>
    <contour>
      <point x="187" y="854" type="line"/>
      <point x="187" y="1492" type="line"/>
      <point x="273" y="1492" type="line"/>
      <point x="273" y="1046" type="line"/>
      <point x="210" y="854" type="line"/>
    </contour>
  </outline>
</glyph>
<glyph name="P" format="2">
  <advance width="462"/>
  <unicode hex="0050"/>
  <outline>
    <contour>
      <point x="47" y="0" type="line" identifier="EG08jqU5fb"/>
      <point x="187" y="0" type="line" identifier="osRzIFK2Cu"/>
      <point x="187" y="640" type="line" identifier="hIFVovVRwe"/>
      <point x="428" y="640" type="line" identifier="Tt6D8zYZmU"/>
      <point x="428" y="1600" type="line" identifier="6xW04auDFu"/>
      <point x="47" y="1600" type="line" identifier="eETO5GBD5v"/>
    </contour>
    <contour>
      <point x="187" y="748" type="line" identifier="PIBVN1PGv1"/>
      <point x="187" y="1492" type="line" identifier="IZIZQr2gYJ"/>
      <point x="288" y="1492" type="line" identifier="2c4LCF1E1R"/>
      <point x="288" y="748" type="line" identifier="1WCnzth1GX"/>
    </contour>
  </outline>
</glyph>
<glyph name="S" format="2">
  <advance width="447"/>
  <unicode hex="0053"/>
  <outline>
    <contour>
      <point x="34" y="0" type="line" identifier="09VlJ0BjUX"/>
      <point x="341" y="0" type="line" identifier="EagWihqFM8"/>
      <point x="415" y="238" type="line"/>
      <point x="415" y="857" type="line" identifier="KfNuQA7eZe"/>
      <point x="171" y="857" type="line" identifier="At364YZFEy"/>
      <point x="171" y="1342" type="line"/>
      <point x="206" y="1498" type="line"/>
      <point x="261" y="1498" type="line" identifier="3ZUkG35meB"/>
      <point x="261" y="1139" type="line" identifier="DTOJhFIl15"/>
      <point x="401" y="1139" type="line" identifier="9KDcrfQ5Ui"/>
      <point x="401" y="1600" type="line" identifier="SaF9ojRFrW"/>
      <point x="107" y="1600" type="line"/>
      <point x="33" y="1348" type="line"/>
      <point x="33" y="744" type="line" identifier="3sQ8t8BZ6b"/>
      <point x="275" y="744" type="line" identifier="yiV6OCBLHg"/>
      <point x="275" y="243" type="line"/>
      <point x="240" y="104" type="line" identifier="9kdl9SYsn8"/>
      <point x="173" y="104" type="line" identifier="yZDWuX8LLe"/>
      <point x="173" y="466" type="line" identifier="jYb9001DTm"/>
      <point x="34" y="466" type="line" identifier="ho4DrS0rdW"/>
    </contour>
  </outline>
</glyph>
<glyph name="W" format="2">
  <advance width="677"/>
  <unicode hex="0057"/>
  <outline>
    <contour>
      <point x="227" y="1600" type="line" identifier="0Dn4Xpf57M"/>
      <point x="189" y="39" type="line"/>
      <point x="178" y="39" type="line"/>
      <point x="134" y="1600" type="line"/>
      <point x="17" y="1592" type="line"/>
      <point x="64" y="0" type="line"/>
      <point x="301" y="0" type="line"/>
      <point x="332" y="1501" type="line"/>
      <point x="343" y="1501" type="line" identifier="9aKZPM0HPh"/>
      <point x="375" y="0" type="line"/>
      <point x="612" y="0" type="line"/>
      <point x="660" y="1592" type="line"/>
      <point x="542" y="1600" type="line"/>
      <point x="495" y="39" type="line"/>
      <point x="487" y="39" type="line"/>
      <point x="448" y="1600" type="line" identifier="spdoeeCFft"/>
    </contour>
  </outline>
</glyph>
<glyph name="Z" format="2">
  <advance width="440"/>
  <unicode hex="005A"/>
  <outline>
    <contour>
      <point x="29" y="0" type="line"/>
      <point x="411" y="0" type="line" identifier="pzdvPTirLJ"/>
      <point x="411" y="445" type="line" identifier="91SxUS0iwG"/>
      <point x="271" y="445" type="line"/>
      <point x="271" y="108" type="line"/>
      <point x="169" y="108" type="line"/>
      <point x="169" y="314" type="line"/>
      <point x="409" y="1450" type="line" identifier="yyb1NCCI5w"/>
      <point x="409" y="1600" type="line" identifier="5FogYRSgkk"/>
      <point x="37" y="1600" type="line" identifier="svlFvrau4c"/>
      <point x="37" y="1174" type="line" identifier="LQ9fBsTy9K"/>
      <point x="162" y="1174" type="line"/>
      <point x="162" y="1492" type="line"/>
      <point x="269" y="1492" type="line"/>
      <point x="269" y="1450" type="line"/>
      <point x="29" y="318" type="line" identifier="teVKnpBcVb"/>
    </contour>
  </outline>
</glyph>
<glyph name="B.skinnymiddle" format="2">
  <advance width="455"/>
  <outline>
    <contour>
      <point x="36" y="0" type="line" identifier="hvY9r8RmLr"/>
      <point x="351" y="0" type="line" identifier="9QFpw7nfq7"/>
      <point x="426" y="247" type="line"/>
      <point x="426" y="852" type="line" identifier="543PerILpr"/>
      <point x="333" y="852" type="line" identifier="zhomauHW30"/>
      <point x="399" y="1034" type="line"/>
      <point x="399" y="1600" type="line" identifier="FaP204GrdB"/>
      <point x="36" y="1600" type="line" identifier="JEev70GAj6"/>
    </contour>
    <contour>
      <point x="176" y="108" type="line" identifier="jaMSiLrCua"/>
      <point x="176" y="745" type="line" identifier="XSrxNd2axx"/>
      <point x="286" y="745" type="line" identifier="lsRGatjQja"/>
      <point x="286" y="252" type="line"/>
      <point x="251" y="108" type="line" identifier="xhlDJ3CjD5"/>
    </contour>
    <contour>
      <point x="176" y="852" type="line" identifier="By7dfMihfe"/>
      <point x="176" y="1492" type="line" identifier="1p5hKrurVy"/>
      <point x="272" y="1492" type="line" identifier="Qby8aMtF2X"/>
      <point x="272" y="1024" type="line"/>
      <point x="207" y="852" type="line" identifier="xpxyvIzPoc"/>
    </contour>
  </outline>
</glyph>
<glyph name="C.wide" format="2">
  <advance width="452"/>
  <outline>
    <contour>
      <point x="34" y="0" type="line" identifier="7lPhzTnk2Z"/>
      <point x="432" y="0" type="line" identifier="qJVLZGnkwh"/>
      <point x="432" y="108" type="line" identifier="Y750RHTvDj"/>
      <point x="174" y="108" type="line" identifier="L2LsGnXiZ2"/>
      <point x="174" y="1211" type="line" identifier="sUWsr03vF4"/>
      <point x="219" y="1492" type="line" identifier="dbOUe6OhxL"/>
      <point x="431" y="1492" type="line" identifier="5BjRbcud80"/>
      <point x="431" y="1600" type="line" identifier="9eJelv8BOw"/>
      <point x="99" y="1600" type="line" identifier="lfZev3ICaC"/>
      <point x="34" y="1220" type="line" identifier="V1EWIdPahq"/>
    </contour>
  </outline>
</glyph>
<glyph name="E.wideskinny" format="2">
  <advance width="364"/>
  <outline>
    <contour>
      <point x="38" y="0" type="line" identifier="fZynkQ4XHB"/>
      <point x="328" y="0" type="line" identifier="FAQNpgUPxV"/>
      <point x="328" y="103" type="line" identifier="5cgTYOhATF"/>
      <point x="178" y="103" type="line" identifier="bWs42DaCgU"/>
      <point x="178" y="751" type="line" identifier="VtD2aADJmn"/>
      <point x="309" y="751" type="line" identifier="PpbsFdHAnS"/>
      <point x="309" y="849" type="line" identifier="8WuC5p8Ax5"/>
      <point x="178" y="849" type="line" identifier="m39IWn9ntA"/>
      <point x="178" y="1499" type="line" identifier="gQ21I4SHQg"/>
      <point x="327" y="1499" type="line" identifier="eqNb2VTwYs"/>
      <point x="327" y="1600" type="line" identifier="qYRmo14Il5"/>
      <point x="38" y="1600" type="line" identifier="HmJIcnLWfC"/>
    </contour>
  </outline>
</glyph>
<glyph name="G.wide" format="2">
  <advance width="461"/>
  <outline>
    <contour>
      <point x="34" y="0" type="line" identifier="7lPhzTnk2Z"/>
      <point x="428" y="0" type="line" identifier="qJVLZGnkwh"/>
      <point x="428" y="915" type="line" identifier="uek1NNj7De"/>
      <point x="225" y="915" type="line" identifier="qcvimxjndX"/>
      <point x="225" y="807" type="line" identifier="EARaY3Su65"/>
      <point x="290" y="807" type="line" identifier="4m6dHLVhZq"/>
      <point x="290" y="108" type="line" identifier="Y750RHTvDj"/>
      <point x="174" y="108" type="line" identifier="L2LsGnXiZ2"/>
      <point x="174" y="1228" type="line" identifier="sUWsr03vF4"/>
      <point x="215" y="1492" type="line" identifier="dbOUe6OhxL"/>
      <point x="428" y="1492" type="line" identifier="5BjRbcud80"/>
      <point x="428" y="1600" type="line" identifier="9eJelv8BOw"/>
      <point x="89" y="1600" type="line" identifier="lfZev3ICaC"/>
      <point x="34" y="1232" type="line" identifier="V1EWIdPahq"/>
    </contour>
  </outline>
</glyph>
<glyph name="G.wideskinny" format="2">
  <advance width="458"/>
  <outline>
    <contour>
      <point x="29" y="0" type="line" identifier="7lPhzTnk2Z"/>
      <point x="429" y="0" type="line" identifier="qJVLZGnkwh"/>
      <point x="429" y="827" type="line" identifier="uek1NNj7De"/>
      <point x="225" y="827" type="line" identifier="qcvimxjndX"/>
      <point x="225" y="740" type="line" identifier="EARaY3Su65"/>
      <point x="291" y="740" type="line" identifier="4m6dHLVhZq"/>
      <point x="291" y="108" type="line" identifier="Y750RHTvDj"/>
      <point x="169" y="108" type="line" identifier="L2LsGnXiZ2"/>
      <point x="169" y="1228" type="line" identifier="sUWsr03vF4"/>
      <point x="210" y="1492" type="line" identifier="dbOUe6OhxL"/>
      <point x="428" y="1492" type="line" identifier="5BjRbcud80"/>
      <point x="428" y="1600" type="line" identifier="9eJelv8BOw"/>
      <point x="85" y="1600" type="line" identifier="lfZev3ICaC"/>
      <point x="29" y="1232" type="line" identifier="V1EWIdPahq"/>
    </contour>
  </outline>
</glyph>
<glyph name="N.wide" format="2">
  <advance width="575"/>
  <outline>
    <contour>
      <point x="37" y="0" type="line" identifier="CkwYPPvJLv"/>
      <point x="177" y="0" type="line" identifier="oHTJsN7drZ"/>
      <point x="177" y="1454" type="line" identifier="wfBbYd10Pm"/>
      <point x="193" y="1454" type="line" identifier="MEnBDHq6zU"/>
      <point x="384" y="0" type="line" identifier="3Nbopwznvn"/>
      <point x="538" y="0" type="line" identifier="uKfuudIUvA"/>
      <point x="538" y="1600" type="line" identifier="XRdLFXiM4t"/>
      <point x="399" y="1600" type="line" identifier="MUSJPjCIXg"/>
      <point x="399" y="155" type="line" identifier="VILP20cFmq"/>
      <point x="383" y="155" type="line" identifier="z5b04GDwRN"/>
      <point x="197" y="1600" type="line" identifier="LL64NQ6WBE"/>
      <point x="37" y="1600" type="line" identifier="dzUaaP1sjt"/>
    </contour>
  </outline>
</glyph>
<glyph name="S.wide" format="2">
  <advance width="444"/>
  <outline>
    <contour>
      <point x="35" y="0" type="line" identifier="09VlJ0BjUX"/>
      <point x="353" y="0" type="line" identifier="EagWihqFM8"/>
      <point x="411" y="238" type="line"/>
      <point x="411" y="856" type="line" identifier="KfNuQA7eZe"/>
      <point x="171" y="856" type="line" identifier="At364YZFEy"/>
      <point x="171" y="1342" type="line"/>
      <point x="208" y="1498" type="line"/>
      <point x="403" y="1498" type="line" identifier="3ZUkG35meB"/>
      <point x="403" y="1600" type="line" identifier="SaF9ojRFrW"/>
      <point x="94" y="1600" type="line"/>
      <point x="33" y="1347" type="line"/>
      <point x="33" y="743" type="line" identifier="3sQ8t8BZ6b"/>
      <point x="271" y="743" type="line" identifier="yiV6OCBLHg"/>
      <point x="271" y="243" type="line"/>
      <point x="237" y="104" type="line" identifier="9kdl9SYsn8"/>
      <point x="35" y="104" type="line" identifier="yZDWuX8LLe"/>
    </contour>
  </outline>
</glyph>
<glyph name="S.wideskinny" format="2">
  <advance width="436"/>
  <outline>
    <contour>
      <point x="31" y="0" type="line" identifier="09VlJ0BjUX"/>
      <point x="349" y="0" type="line" identifier="EagWihqFM8"/>
      <point x="407" y="238" type="line"/>
      <point x="407" y="856" type="line" identifier="KfNuQA7eZe"/>
      <point x="168" y="856" type="line" identifier="At364YZFEy"/>
      <point x="168" y="1342" type="line"/>
      <point x="204" y="1498" type="line"/>
      <point x="405" y="1498" type="line" identifier="3ZUkG35meB"/>
      <point x="405" y="1600" type="line" identifier="SaF9ojRFrW"/>
      <point x="90" y="1600" type="line"/>
      <point x="30" y="1347" type="line"/>
      <point x="30" y="743" type="line" identifier="3sQ8t8BZ6b"/>
      <point x="267" y="743" type="line" identifier="yiV6OCBLHg"/>
      <point x="267" y="243" type="line"/>
      <point x="232" y="104" type="line" identifier="9kdl9SYsn8"/>
      <point x="31" y="104" type="line" identifier="yZDWuX8LLe"/>
    </contour>
  </outline>
</glyph>
<glyph name="Y.wide" format="2">
  <advance width="468"/>
  <outline>
    <contour>
      <point x="41" y="0" type="line"/>
      <point x="432" y="0" type="line" identifier="oOtn61SmRY"/>
      <point x="432" y="1600" type="line" identifier="8OglXgblhr"/>
      <point x="293" y="1600" type="line" identifier="db0bPhBdaU"/>
      <point x="293" y="854" type="line" identifier="MTAeavIVWY"/>
      <point x="178" y="854" type="line" identifier="lggLiivmLt"/>
      <point x="178" y="1600" type="line" identifier="UPaHY3UudR"/>
      <point x="38" y="1600" type="line" identifier="ZnCDQVdtyD"/>
      <point x="38" y="746" type="line" identifier="uqAJBjDIOT"/>
      <point x="293" y="746" type="line" identifier="7JgTtdb0jg"/>
      <point x="293" y="108" type="line"/>
      <point x="41" y="108" type="line"/>
    </contour>
  </outline>
</glyph>
<glyph name="Y.wideskinny" format="2">
  <advance width="470"/>
  <outline>
    <contour>
      <point x="41" y="0" type="line"/>
      <point x="433" y="0" type="line" identifier="oOtn61SmRY"/>
      <point x="433" y="1600" type="line" identifier="8OglXgblhr"/>
      <point x="294" y="1600" type="line" identifier="db0bPhBdaU"/>
      <point x="294" y="854" type="line" identifier="MTAeavIVWY"/>
      <point x="178" y="854" type="line" identifier="lggLiivmLt"/>
      <point x="178" y="1600" type="line" identifier="UPaHY3UudR"/>
      <point x="39" y="1600" type="line" identifier="ZnCDQVdtyD"/>
      <point x="39" y="746" type="line" identifier="uqAJBjDIOT"/>
      <point x="294" y="746" type="line" identifier="7JgTtdb0jg"/>
      <point x="294" y="108" type="line"/>
      <point x="41" y="108" type="line"/>
    </contour>
  </outline>
</glyph>
<glyph name="Z.wide" format="2">
  <advance width="459"/>
  <outline>
    <contour>
      <point x="29" y="0" type="line"/>
      <point x="427" y="0" type="line" identifier="pzdvPTirLJ"/>
      <point x="427" y="108" type="line"/>
      <point x="169" y="108" type="line"/>
      <point x="169" y="315" type="line"/>
      <point x="427" y="1415" type="line" identifier="yyb1NCCI5w"/>
      <point x="427" y="1600" type="line" identifier="5FogYRSgkk"/>
      <point x="32" y="1600" type="line" identifier="svlFvrau4c"/>
      <point x="32" y="1492" type="line"/>
      <point x="286" y="1492" type="line"/>
      <point x="286" y="1411" type="line"/>
      <point x="29" y="318" type="line" identifier="teVKnpBcVb"/>
    </contour>
  </outline>
</glyph>
<glyph name="five.wide" format="2">
  <advance width="441"/>
  <outline>
    <contour>
      <point x="31" y="0" type="line" identifier="09VlJ0BjUX"/>
      <point x="412" y="0" type="line" identifier="EagWihqFM8"/>
      <point x="412" y="853" type="line" identifier="KfNuQA7eZe"/>
      <point x="169" y="853" type="line" identifier="At364YZFEy"/>
      <point x="169" y="1492" type="line" identifier="BcuLfvaQKC"/>
      <point x="412" y="1492" type="line" identifier="3ZUkG35meB"/>
      <point x="412" y="1600" type="line" identifier="SaF9ojRFrW"/>
      <point x="29" y="1600" type="line" identifier="F4sQEYelA8"/>
      <point x="29" y="746" type="line" identifier="3sQ8t8BZ6b"/>
      <point x="272" y="746" type="line" identifier="yiV6OCBLHg"/>
      <point x="272" y="108" type="line" identifier="9kdl9SYsn8"/>
      <point x="31" y="108" type="line" identifier="yZDWuX8LLe"/>
    </contour>
  </outline>
</glyph>
<glyph name="five.wideskinny" format="2">
  <advance width="446"/>
  <outline>
    <contour>
      <point x="33" y="0" type="line" identifier="09VlJ0BjUX"/>
      <point x="415" y="0" type="line" identifier="EagWihqFM8"/>
      <point x="415" y="853" type="line" identifier="KfNuQA7eZe"/>
      <point x="171" y="853" type="line" identifier="At364YZFEy"/>
      <point x="171" y="1492" type="line" identifier="BcuLfvaQKC"/>
      <point x="415" y="1492" type="line" identifier="3ZUkG35meB"/>
      <point x="415" y="1600" type="line" identifier="SaF9ojRFrW"/>
      <point x="31" y="1600" type="line" identifier="F4sQEYelA8"/>
      <point x="31" y="746" type="line" identifier="3sQ8t8BZ6b"/>
      <point x="276" y="746" type="line" identifier="yiV6OCBLHg"/>
      <point x="276" y="108" type="line" identifier="9kdl9SYsn8"/>
      <point x="33" y="108" type="line" identifier="yZDWuX8LLe"/>
    </contour>
  </outline>
</glyph>
<glyph name="nine.wide" format="2">
  <advance width="461"/>
  <outline>
    <contour>
      <point x="31" y="0" type="line" identifier="oGvEEuxnYv"/>
      <point x="428" y="0" type="line" identifier="xR3pEHbMJx"/>
      <point x="428" y="1600" type="line" identifier="uiw6aBUf4P"/>
      <point x="31" y="1600" type="line" identifier="jtYkxiUX6G"/>
      <point x="31" y="746" type="line" identifier="2G5L37c87I"/>
      <point x="288" y="746" type="line"/>
      <point x="288" y="108" type="line"/>
      <point x="31" y="108" type="line"/>
    </contour>
    <contour>
      <point x="171" y="854" type="line"/>
      <point x="171" y="1492" type="line"/>
      <point x="288" y="1492" type="line"/>
      <point x="288" y="854" type="line"/>
    </contour>
  </outline>
</glyph>
<glyph name="six.wide" format="2">
  <advance width="459"/>
  <outline>
    <contour>
      <point x="30" y="0" type="line" identifier="uiw6aBUf4P"/>
      <point x="428" y="0" type="line" identifier="jtYkxiUX6G"/>
      <point x="428" y="851" type="line" identifier="2G5L37c87I"/>
      <point x="169" y="851" type="line"/>
      <point x="169" y="1346" type="line"/>
      <point x="204" y="1492" type="line"/>
      <point x="424" y="1492" type="line"/>
      <point x="424" y="1600" type="line" identifier="oGvEEuxnYv"/>
      <point x="72" y="1600" type="line" identifier="xR3pEHbMJx"/>
      <point x="30" y="1347" type="line" identifier="KnMArb0tv8"/>
    </contour>
    <contour>
      <point x="289" y="744" type="line"/>
      <point x="289" y="108" type="line"/>
      <point x="169" y="108" type="line"/>
      <point x="169" y="744" type="line"/>
    </contour>
  </outline>
</glyph>
<glyph name="three.wide" format="2">
  <advance width="430"/>
  <outline>
    <contour>
      <point x="8" y="0" type="line" identifier="O9abUc1nmN"/>
      <point x="391" y="0" type="line" identifier="kMJYMTfXCq"/>
      <point x="391" y="853" type="line" identifier="su2XmdS8e8"/>
      <point x="318" y="853" type="line" identifier="JQaOzDQqlF"/>
      <point x="378" y="1034" type="line"/>
      <point x="378" y="1600" type="line" identifier="xg8x2Ki40p"/>
      <point x="16" y="1600" type="line" identifier="pE1XSRiy68"/>
      <point x="16" y="1492" type="line" identifier="7ogBYufWpl"/>
      <point x="238" y="1492" type="line" identifier="RHLvSX2Jv6"/>
      <point x="238" y="1024" type="line"/>
      <point x="189" y="853" type="line" identifier="iic1IBkDqp"/>
      <point x="53" y="852" type="line" identifier="lRLJEhXMlO"/>
      <point x="53" y="745" type="line" identifier="8aKgEELrVU"/>
      <point x="251" y="745" type="line" identifier="Dm8zjmbhNr"/>
      <point x="251" y="108" type="line" identifier="xv9CFHiFgB"/>
      <point x="8" y="108" type="line" identifier="YajKQV3MHP"/>
    </contour>
  </outline>
</glyph>
<glyph name="two.wide" format="2">
  <advance width="448"/>
  <outline>
    <contour>
      <point x="27" y="0" type="line"/>
      <point x="415" y="0" type="line" identifier="pzdvPTirLJ"/>
      <point x="414" y="108" type="line"/>
      <point x="167" y="108" type="line"/>
      <point x="167" y="742" type="line"/>
      <point x="411" y="742" type="line" identifier="yyb1NCCI5w"/>
      <point x="411" y="1600" type="line" identifier="5FogYRSgkk"/>
      <point x="33" y="1600" type="line" identifier="svlFvrau4c"/>
      <point x="33" y="1492" type="line"/>
      <point x="272" y="1492" type="line"/>
      <point x="272" y="850" type="line"/>
      <point x="27" y="850" type="line" identifier="teVKnpBcVb"/>
    </contour>
  </outline>
</glyph>
